<svg xmlns="http://www.w3.org/2000/svg" xmlns:xlink="http://www.w3.org/1999/xlink" width="500" zoomAndPan="magnify" viewBox="0 0 375 374.999991" height="500" preserveAspectRatio="xMidYMid meet" version="1.0"><defs><clipPath id="1dab734c96"><path d="M 130 44 L 328 44 L 328 323.613281 L 130 323.613281 Z M 130 44 " clip-rule="nonzero"/></clipPath><clipPath id="519681a526"><path d="M 46.910156 146 L 126 146 L 126 322 L 46.910156 322 Z M 46.910156 146 " clip-rule="nonzero"/></clipPath><clipPath id="72392deab4"><path d="M 69.253906 273.601562 L 70.675781 273.601562 L 70.675781 274.824219 L 69.253906 274.824219 Z M 69.253906 273.601562 " clip-rule="nonzero"/></clipPath><clipPath id="4d4b934c6a"><path d="M 70.648438 274.050781 C 70.050781 275.023438 69.449219 274.875 69.300781 274.648438 C 69.226562 274.425781 69.300781 273.824219 69.523438 273.675781 C 69.675781 273.523438 70.5 273.75 70.5 273.75 " clip-rule="nonzero"/></clipPath><clipPath id="e6de7f84c4"><path d="M 175.488281 174.796875 L 222.855469 174.796875 L 222.855469 228.988281 L 175.488281 228.988281 Z M 175.488281 174.796875 " clip-rule="nonzero"/></clipPath><clipPath id="5f84ea5ddc"><path d="M 198 189.601562 C 196.050781 180.601562 195.375 180.300781 194.550781 180.074219 C 193.351562 179.773438 191.699219 180.074219 190.199219 180.523438 C 188.398438 181.050781 186.523438 181.949219 184.648438 183.300781 C 182.175781 185.023438 177.75 188.851562 177.074219 190.800781 C 176.773438 191.773438 177.074219 192.675781 177.523438 193.273438 C 177.898438 193.875 178.800781 194.101562 179.550781 194.25 C 180.523438 194.476562 181.574219 194.625 182.851562 194.175781 C 185.398438 193.425781 189.601562 190.199219 192.75 187.875 C 195.824219 185.550781 199.425781 182.476562 201.675781 180.148438 C 203.25 178.5 204.375 176.398438 205.351562 175.574219 C 205.875 175.199219 206.25 174.824219 206.625 174.898438 C 206.925781 174.898438 207.300781 175.125 207.375 175.574219 C 207.898438 178.800781 186.824219 212.25 182.699219 220.050781 C 181.273438 222.75 180.449219 224.023438 180 225.601562 C 179.625 226.726562 180 228.148438 179.550781 228.523438 C 179.25 228.824219 178.425781 228.898438 178.351562 228.675781 C 177.898438 227.851562 185.773438 219.226562 189.449219 215.476562 C 192.601562 212.25 195.824219 209.324219 198.824219 207.300781 C 201.074219 205.648438 203.699219 204.226562 205.5 203.699219 C 206.550781 203.398438 207.074219 203.25 208.199219 203.625 C 210.375 204.226562 215.175781 208.050781 216.824219 209.773438 C 217.648438 210.601562 218.25 211.351562 218.324219 212.101562 C 218.398438 212.699219 218.101562 213.074219 217.648438 213.824219 C 216.601562 215.625 212.851562 219.898438 210.824219 221.925781 C 209.324219 223.273438 208.050781 224.25 206.773438 225 C 205.726562 225.601562 204.449219 226.425781 203.699219 226.273438 C 203.175781 226.125 202.726562 225.601562 202.5 224.925781 C 202.125 223.800781 202.574219 221.476562 203.023438 219.300781 C 203.699219 216.226562 204.976562 212.398438 206.550781 208.351562 C 208.800781 202.875 213.074219 194.398438 215.699219 189.824219 C 217.351562 186.976562 218.773438 183.976562 220.199219 183.148438 C 220.875 182.773438 221.773438 182.773438 222.226562 183.074219 C 222.523438 183.226562 222.824219 183.824219 222.675781 184.050781 C 222.601562 184.273438 221.925781 184.574219 221.699219 184.425781 C 221.476562 184.351562 221.324219 183.375 221.476562 183.226562 C 221.699219 183.074219 222.601562 183.300781 222.675781 183.523438 C 222.824219 183.675781 222.226562 184.5 222 184.5 C 221.773438 184.5 221.324219 183.523438 221.398438 183.300781 C 221.476562 183.148438 222.148438 183 222.375 183.148438 C 222.601562 183.226562 222.75 184.050781 222.601562 184.199219 C 222.449219 184.351562 221.773438 183.898438 221.324219 184.050781 C 220.800781 184.351562 220.425781 185.25 219.75 186.375 C 218.25 188.699219 215.175781 194.023438 213.226562 197.851562 C 211.351562 201.523438 209.476562 205.125 207.976562 208.800781 C 206.625 212.324219 205.273438 216.601562 204.523438 219.449219 C 204.074219 221.398438 203.476562 223.425781 203.773438 224.398438 C 203.851562 224.773438 204.074219 225.148438 204.449219 225.226562 C 205.351562 225.300781 207.898438 222.675781 209.699219 220.875 C 212.023438 218.550781 217.425781 214.648438 217.125 212.023438 C 216.824219 209.398438 210.074219 205.726562 208.050781 205.050781 C 207.226562 204.75 206.851562 204.898438 206.023438 205.050781 C 204.523438 205.5 201.601562 207.226562 199.726562 208.425781 C 198.148438 209.476562 197.324219 210.300781 195.523438 211.949219 C 191.773438 215.398438 181.800781 228.675781 179.324219 228.824219 C 178.648438 228.824219 178.125 228.300781 177.976562 227.625 C 177.601562 226.199219 179.773438 222.75 181.425781 219.300781 C 184.351562 213.074219 190.726562 201.75 195.074219 193.949219 C 198.898438 187.199219 203.851562 176.101562 206.023438 175.199219 C 206.550781 174.976562 207.226562 175.199219 207.375 175.574219 C 207.601562 176.324219 204.523438 179.324219 202.648438 181.273438 C 200.175781 183.75 196.199219 186.898438 193.648438 189.074219 C 191.699219 190.574219 190.351562 191.851562 188.550781 192.976562 C 186.824219 194.023438 184.726562 195.300781 182.925781 195.675781 C 181.5 195.976562 180.074219 195.976562 178.949219 195.601562 C 177.898438 195.300781 176.851562 194.773438 176.324219 193.949219 C 175.726562 193.050781 175.5 191.398438 175.800781 190.199219 C 176.175781 188.925781 177.523438 187.726562 178.648438 186.449219 C 180.148438 184.949219 182.101562 183.148438 183.976562 181.949219 C 185.851562 180.75 188.023438 179.550781 190.050781 179.023438 C 191.773438 178.574219 193.800781 178.351562 195.148438 178.800781 C 196.273438 179.175781 197.25 179.773438 197.925781 180.898438 C 198.976562 182.625 199.726562 188.023438 199.425781 189.300781 C 199.351562 189.75 199.050781 190.050781 198.824219 190.125 C 198.601562 190.125 198 189.601562 198 189.601562 " clip-rule="nonzero"/></clipPath></defs><g clip-path="url(#1dab734c96)"><path fill="#ffc8dd" d="M 242.203125 137.722656 C 243.164062 137.816406 244.183594 137.875 245.261719 137.898438 C 249.214844 137.996094 253.164062 138.050781 257.117188 138.066406 C 261.160156 138.082031 267.289062 138.246094 275.5 138.554688 C 285.984375 138.949219 295.132812 142.28125 303.617188 148.097656 C 312.199219 153.988281 319.101562 162.410156 323.582031 171.769531 C 327.648438 180.269531 328.164062 189.535156 327.550781 198.851562 C 327.519531 199.292969 327.421875 200.578125 327.257812 202.710938 C 326.605469 211.070312 325.394531 219.570312 323.625 228.210938 C 321.75 237.34375 319.792969 245.878906 317.667969 254.207031 C 315.523438 262.621094 312.726562 270.8125 309.285156 278.785156 C 307.011719 284.046875 304.699219 289.175781 301.890625 293.875 C 294.527344 306.175781 282.488281 313.617188 268.894531 317.203125 C 263.382812 318.65625 258.183594 319.722656 253.289062 320.394531 C 245.222656 321.507812 237.121094 322.269531 228.984375 322.675781 C 222.230469 323.015625 215.480469 323.191406 208.722656 323.335938 C 202.148438 323.476562 195.75 323.359375 189.527344 322.988281 C 182.996094 322.597656 176.285156 321.601562 169.921875 319.800781 C 159.242188 316.777344 150.421875 310.003906 144.179688 300.828125 C 139.796875 294.390625 136.359375 287.582031 134.242188 280.15625 C 131.375 270.085938 130.773438 260.078125 130.535156 249.261719 C 130.257812 236.503906 130.246094 225.410156 130.5 215.972656 C 130.785156 205.410156 131.074219 194.847656 131.371094 184.285156 C 131.515625 179.167969 131.84375 173.527344 132.355469 167.351562 C 133.273438 156.269531 135.699219 146.277344 143.929688 138.226562 C 145.882812 136.320312 147.894531 134.472656 149.957031 132.691406 C 150.746094 132.011719 151.457031 131.320312 152.097656 130.621094 C 159.636719 122.371094 167.914062 113.414062 176.933594 103.761719 C 181.761719 98.589844 186.25 93.816406 190.808594 89.210938 C 201.789062 78.109375 210.390625 69.472656 220.503906 59.957031 C 224.363281 56.324219 228.34375 53.09375 232.445312 50.269531 C 234.15625 49.089844 236.015625 48.011719 238.019531 47.039062 C 247.457031 42.449219 257.636719 43.832031 265.402344 50.910156 C 270.621094 55.664062 274.460938 63.203125 275.296875 70.199219 C 275.976562 75.84375 275.574219 81.296875 274.101562 86.558594 C 271.894531 94.4375 268.226562 102.175781 263.535156 109.160156 C 258.476562 116.699219 252.71875 123.726562 246.992188 130.761719 C 245.257812 132.890625 243.617188 135.117188 242.066406 137.429688 C 241.949219 137.605469 241.996094 137.703125 242.203125 137.722656 Z M 189.574219 102.621094 L 190.007812 102.308594 C 190.054688 102.273438 190.058594 102.242188 190.019531 102.210938 L 189.96875 102.175781 C 189.921875 102.140625 189.878906 102.144531 189.839844 102.1875 L 189.515625 102.554688 C 189.332031 102.757812 189.351562 102.78125 189.574219 102.621094 Z M 189.574219 102.621094 " fill-opacity="1" fill-rule="nonzero"/></g><g clip-path="url(#519681a526)"><path fill="#ffc8dd" d="M 52.011719 169.464844 C 53.480469 165.746094 55.308594 162.019531 57.933594 159.074219 C 60.578125 156.101562 63.722656 153.75 67.363281 152.011719 C 77.078125 147.378906 87.433594 145.429688 98.429688 146.164062 C 105.953125 146.667969 113.019531 149.046875 117.597656 155.433594 C 119.925781 158.675781 122.097656 162.605469 122.710938 166.625 C 123.042969 168.820312 122.949219 171.308594 123.144531 173.453125 C 123.375 175.988281 123.523438 178.097656 123.589844 179.785156 C 124.144531 194.105469 123.765625 211.25 123.753906 224.199219 C 123.75 231.171875 123.800781 238.660156 124.09375 246.210938 C 124.585938 258.824219 124.933594 267.066406 125.144531 270.933594 C 125.527344 278.050781 125.511719 285.03125 125.09375 291.882812 C 124.929688 294.539062 124.539062 297.207031 123.917969 299.882812 C 122.171875 307.402344 117.382812 312.703125 110.261719 315.492188 C 107.0625 316.742188 103.796875 317.761719 100.457031 318.550781 C 95.238281 319.785156 90 320.800781 84.785156 321.195312 C 79.691406 321.585938 73.765625 320.605469 69.554688 317.660156 C 66.867188 315.777344 64.542969 313.070312 62.675781 310.191406 C 53.460938 295.96875 50.628906 278.996094 49.988281 262.351562 C 49.652344 253.738281 49.277344 246.710938 48.859375 241.277344 C 48.1875 232.53125 47.730469 226.195312 47.488281 222.261719 C 47.105469 216.03125 46.921875 209.25 46.9375 201.917969 C 46.949219 196.386719 47.226562 191.195312 47.765625 186.34375 C 48.394531 180.664062 49.8125 175.035156 52.011719 169.464844 Z M 52.011719 169.464844 " fill-opacity="1" fill-rule="nonzero"/></g><g clip-path="url(#72392deab4)"><g clip-path="url(#4d4b934c6a)"><path fill="#ffc8dd" d="M 66.300781 270.675781 L 73.71875 270.675781 L 73.71875 277.949219 L 66.300781 277.949219 Z M 66.300781 270.675781 " fill-opacity="1" fill-rule="nonzero"/></g></g><g clip-path="url(#e6de7f84c4)"><g clip-path="url(#5f84ea5ddc)"><path fill="#ffc8dd" d="M 172.800781 171.898438 L 225.75 171.898438 L 225.75 231.882812 L 172.800781 231.882812 Z M 172.800781 171.898438 " fill-opacity="1" fill-rule="nonzero"/></g></g></svg>